<svg xmlns="http://www.w3.org/2000/svg" width="150" height="37" fill="none"><path fill="#22947e" fill-rule="evenodd" d="m27.601 18.153 6.67 11.55 1.357 2.35H.572l1.357-2.35L16.743 4.048l1.357-2.35 1.357 2.35 2.068 3.581-1.195 2.63-2.23-3.861L4.643 29.703h26.914l-5.15-8.92z" clip-rule="evenodd"/><path fill="#22947e" d="m24.023 20.345-1.959-4.308-4.308-1.959 4.308-1.958 1.959-4.309 1.958 4.309 4.309 1.958-4.309 1.959zm7.344-8.421-.98-2.154-2.154-.98 2.154-.979.98-2.154.979 2.154 2.154.98-2.154.979z"/><path fill="#3a4151" d="M52.96 15.893a3.9 3.9 0 0 1-.476 1.904q-.475.849-1.462 1.377-.985.526-2.448.527h-1.802v4.284h-2.907V12.05h4.71q1.427 0 2.413.493.986.492 1.48 1.36.492.866.492 1.989m-4.607 1.496q.834 0 1.241-.391.408-.392.408-1.105 0-.715-.408-1.105-.408-.391-1.24-.391h-1.582v2.992zM57.04 14.38v2.414h3.894v2.244H57.04v2.618h4.403v2.329h-7.31V12.05h7.31v2.329zM70.42 21.877h-4.454l-.714 2.108h-3.043l4.318-11.934h3.366l4.318 11.934h-3.077zm-.748-2.244-1.48-4.37-1.461 4.37zM82.104 23.985l-4.012-5.27v5.27h-2.907V12.05h2.907v5.236l3.978-5.236h3.417l-4.624 5.848 4.794 6.086zM94.432 12.05q1.888 0 3.298.749a5.27 5.27 0 0 1 2.176 2.108q.782 1.343.782 3.11 0 1.752-.782 3.112a5.25 5.25 0 0 1-2.193 2.108q-1.41.748-3.28.748H89.96V12.05zm-.187 9.419q1.65 0 2.567-.901t.918-2.55q0-1.65-.918-2.567t-2.567-.918h-1.377v6.936zM104.88 14.38v2.414h3.893v2.244h-3.893v2.618h4.403v2.329h-7.31V12.05h7.31v2.329zM115.148 24.104q-1.31 0-2.346-.425-1.037-.426-1.666-1.258-.612-.834-.646-2.006h3.094q.067.663.459 1.02.392.34 1.02.34.646 0 1.02-.29.374-.305.374-.832a.96.96 0 0 0-.306-.731 2.3 2.3 0 0 0-.731-.476 11 11 0 0 0-1.224-.425q-1.157-.357-1.887-.714a3.5 3.5 0 0 1-1.258-1.054q-.527-.697-.527-1.82 0-1.665 1.207-2.6 1.207-.952 3.145-.952 1.972 0 3.179.952 1.207.935 1.292 2.618h-3.145q-.034-.579-.425-.901-.391-.34-1.003-.34-.527 0-.85.289-.323.27-.323.799 0 .578.544.9.544.324 1.7.698 1.156.39 1.87.748.731.356 1.258 1.037t.527 1.75q0 1.02-.527 1.854-.51.832-1.496 1.326-.986.492-2.329.493M123.856 12.05v11.935h-2.907V12.05zM133.545 15.825a2.1 2.1 0 0 0-.935-.901q-.595-.323-1.411-.323-1.412 0-2.261.935-.85.918-.85 2.465 0 1.648.884 2.584.9.918 2.465.918 1.07 0 1.802-.544.747-.544 1.088-1.564h-3.689v-2.142h6.324v2.703a5.65 5.65 0 0 1-1.105 2.023q-.765.934-1.955 1.513t-2.686.578q-1.769 0-3.162-.765a5.64 5.64 0 0 1-2.159-2.16q-.765-1.376-.765-3.144t.765-3.145a5.5 5.5 0 0 1 2.159-2.16q1.377-.78 3.145-.781 2.142 0 3.604 1.037 1.478 1.036 1.955 2.873zM148.908 23.985h-2.907l-4.862-7.361v7.36h-2.907V12.052h2.907l4.862 7.395V12.05h2.907z"/></svg>